<svg xmlns="http://www.w3.org/2000/svg" viewBox="0 0 25 25"><defs><style>.cls-1{fill:#231f20}</style></defs><g id="calendar_travel" data-name="calendar travel"><path class="cls-1" d="M22.5 3H21V2a1 1 0 0 0-1-1h-1a1 1 0 0 0-1 1v1h-4V2a1 1 0 0 0-1-1h-1a1 1 0 0 0-1 1v1H7V2a1 1 0 0 0-1-1H5a1 1 0 0 0-1 1v1H2.5A1.5 1.5 0 0 0 1 4.5v18A1.5 1.5 0 0 0 2.5 24h20a1.5 1.5 0 0 0 1.5-1.5v-18A1.5 1.5 0 0 0 22.5 3zM19 2h1v3h-1zm-7 0h1v3h-1zM5 2h1v3H5zM2.5 4H4v1a1 1 0 0 0 1 1h1a1 1 0 0 0 1-1V4h4v1a1 1 0 0 0 1 1h1a1 1 0 0 0 1-1V4h4v1a1 1 0 0 0 1 1h1a1 1 0 0 0 1-1V4h1.5a.5.5 0 0 1 .5.5V8H2V4.5a.5.5 0 0 1 .5-.5zm20 19h-20a.5.5 0 0 1-.5-.5V9h21v13.5a.5.5 0 0 1-.5.5z"/><path class="cls-1" d="M17.65 11.57a8.7 8.7 0 0 0-2.81.28l-3-1.63a.52.52 0 0 0-.47 0l-1.78.93a.51.51 0 0 0-.11.81l1.86 1.79c-.67.55-1.39 1.21-2.2 2a.28.28 0 0 0-.1-.09l-1.59-.88a.51.51 0 0 0-.48 0l-.88.47a.48.48 0 0 0-.25.29.46.46 0 0 0 0 .38l1.39 2.66 1.46 2.65a.5.5 0 0 0 .44.25.43.43 0 0 0 .24-.06l.88-.48a.5.5 0 0 0 .25-.4l.15-1.81v-.06c1.1-.23 2.05-.44 2.89-.68l.46 2.53a.52.52 0 0 0 .27.37.59.59 0 0 0 .22.05.53.53 0 0 0 .24-.06l1.76-.88a.46.46 0 0 0 .26-.39l.36-3.41a8.67 8.67 0 0 0 1.83-2.2 1.59 1.59 0 0 0 0-1.58 1.57 1.57 0 0 0-1.29-.85zm-7 .14.92-.49 2 1.08a8.9 8.9 0 0 0-1.42.83zm-3.47 4 1.21.67c-.27.26-.51.5-.74.74L7 15.87zm2.17 4.53L8.69 19l1-.18-.1 1.31zm5.49-.62-.33-2A9.14 9.14 0 0 0 16 17l-.23 2.24zm3.22-6.17a7.75 7.75 0 0 1-1.77 2c-1.57 1.27-3.41 1.65-6.45 2.27Q9 18 8.25 18.1v.18-.21c.34-.36.73-.75 1.16-1.17 2.25-2.15 3.6-3.44 5.53-4a7.81 7.81 0 0 1 2.18-.31h.5a.59.59 0 0 1 .5.33.61.61 0 0 1-.03.58z"/></g></svg>